<?xml version="1.0" standalone="no"?>
<!DOCTYPE svg PUBLIC "-//W3C//DTD SVG 20010904//EN"
 "http://www.w3.org/TR/2001/REC-SVG-20010904/DTD/svg10.dtd">
<svg version="1.0" xmlns="http://www.w3.org/2000/svg"
 width="626.000000pt" height="626.000000pt" viewBox="0 0 626.000000 626.000000"
 preserveAspectRatio="xMidYMid meet">
<metadata>
Created by potrace 1.11, written by Peter Selinger 2001-2013
</metadata>
<g transform="translate(0.000000,626.000000) scale(0.100000,-0.100000)"
fill="#000000" stroke="none">
<path d="M2815 5236 c-246 -43 -436 -105 -647 -212 -515 -262 -905 -707 -1095
-1254 -171 -489 -164 -1035 18 -1518 197 -519 582 -949 1075 -1200 636 -322
1372 -322 2008 0 423 215 769 563 980 985 160 320 236 642 236 1003 1 1007
-678 1891 -1650 2149 -208 55 -340 71 -580 70 -176 0 -238 -5 -345 -23z m680
-47 c469 -70 874 -276 1215 -618 316 -317 521 -715 603 -1166 18 -101 21 -158
22 -365 0 -213 -3 -262 -24 -375 -79 -442 -274 -823 -588 -1145 -267 -276
-591 -471 -955 -576 -214 -61 -342 -78 -598 -78 -185 0 -247 4 -350 22 -261
45 -487 125 -716 254 -178 100 -340 225 -487 378 -314 322 -509 703 -588 1145
-21 113 -24 162 -24 375 1 207 4 264 22 365 82 451 287 849 603 1166 498 500
1168 722 1865 618z"/>
<path d="M2930 4625 c-478 -82 -871 -346 -1129 -759 -88 -141 -158 -323 -201
-522 -33 -153 -38 -403 -12 -559 64 -372 213 -662 468 -911 241 -234 540 -385
874 -439 119 -19 376 -19 490 -1 351 58 626 196 879 440 589 571 654 1491 151
2146 -68 88 -196 215 -295 291 -209 163 -459 269 -735 315 -106 17 -387 17
-490 -1z m555 -60 c538 -113 975 -489 1159 -998 120 -332 126 -699 15 -1029
-86 -259 -202 -442 -405 -638 -272 -264 -596 -405 -999 -435 -92 -7 -282 8
-394 31 -434 88 -824 376 -1045 770 -136 241 -196 477 -196 764 0 329 83 603
265 875 274 410 737 669 1230 688 100 4 285 -10 370 -28z"/>
<path d="M3020 4159 c-639 -81 -1084 -709 -954 -1348 114 -560 631 -948 1199
-899 792 69 1266 910 915 1624 -214 438 -675 685 -1160 623z m368 -59 c360
-73 659 -329 798 -682 86 -219 85 -532 -2 -764 -97 -260 -298 -477 -557 -599
-288 -137 -626 -137 -914 0 -259 122 -460 339 -557 599 -87 232 -88 545 -2
764 138 351 435 607 794 682 122 26 314 26 440 0z"/>
</g>
</svg>
